<svg id="visual" viewBox="0 0 1400 1080" width="1400" height="1080" xmlns="http://www.w3.org/2000/svg" xmlns:xlink="http://www.w3.org/1999/xlink" version="1.1"><rect x="0" y="0" width="1400" height="1080" fill="#001220"></rect><defs><linearGradient id="grad1_0" x1="22.9%" y1="100%" x2="100%" y2="0%"><stop offset="24.074074074074073%" stop-color="#001220" stop-opacity="1"></stop><stop offset="75.92592592592592%" stop-color="#001220" stop-opacity="1"></stop></linearGradient></defs><defs><linearGradient id="grad2_0" x1="0%" y1="100%" x2="77.1%" y2="0%"><stop offset="24.074074074074073%" stop-color="#001220" stop-opacity="1"></stop><stop offset="75.92592592592592%" stop-color="#001220" stop-opacity="1"></stop></linearGradient></defs><g transform="translate(1400, 1080)"><path d="M-397.8 0C-391.3 -76.4 -384.9 -152.7 -344.5 -198.9C-304.2 -245.1 -230.1 -261.1 -167 -289.3C-103.9 -317.4 -52 -357.6 0 -397.8L0 0Z" fill="#350959"></path></g><g transform="translate(0, 0)"><path d="M397.8 0C371.9 60.2 346 120.5 316.1 182.5C286.2 244.5 252.3 308.3 198.9 344.5C145.6 380.7 72.8 389.3 0 397.8L0 0Z" fill="#350959"></path></g></svg>