<svg xmlns="http://www.w3.org/2000/svg" version="1.1" xmlns:xlink="http://www.w3.org/1999/xlink" xmlns:svgjs="http://svgjs.dev/svgjs" width="1440" height="1080" preserveAspectRatio="none" viewBox="0 0 1440 1080"><g mask="url(&quot;#SvgjsMask1074&quot;)" fill="none"><rect width="1440" height="1080" x="0" y="0" fill="#0e2a47"></rect><path d="M460 363L459 -31" stroke-width="6" stroke="url(&quot;#SvgjsLinearGradient1075&quot;)" stroke-linecap="round" class="Up"></path><path d="M990 437L989 155" stroke-width="6" stroke="url(&quot;#SvgjsLinearGradient1075&quot;)" stroke-linecap="round" class="Up"></path><path d="M726 899L725 284" stroke-width="6" stroke="url(&quot;#SvgjsLinearGradient1075&quot;)" stroke-linecap="round" class="Up"></path><path d="M514 683L513 198" stroke-width="10" stroke="url(&quot;#SvgjsLinearGradient1076&quot;)" stroke-linecap="round" class="Down"></path><path d="M209 814L208 446" stroke-width="6" stroke="url(&quot;#SvgjsLinearGradient1077&quot;)" stroke-linecap="round" class="Up"></path><path d="M402 1018L401 595" stroke-width="6" stroke="url(&quot;#SvgjsLinearGradient1076&quot;)" stroke-linecap="round" class="Down"></path><path d="M1267 95L1266 471" stroke-width="10" stroke="url(&quot;#SvgjsLinearGradient1078&quot;)" stroke-linecap="round" class="Down"></path><path d="M41 917L40 320" stroke-width="6" stroke="url(&quot;#SvgjsLinearGradient1078&quot;)" stroke-linecap="round" class="Down"></path><path d="M774 247L773 -474" stroke-width="6" stroke="url(&quot;#SvgjsLinearGradient1077&quot;)" stroke-linecap="round" class="Up"></path><path d="M141 152L140 816" stroke-width="10" stroke="url(&quot;#SvgjsLinearGradient1077&quot;)" stroke-linecap="round" class="Up"></path><path d="M461 390L460 -81" stroke-width="8" stroke="url(&quot;#SvgjsLinearGradient1076&quot;)" stroke-linecap="round" class="Down"></path><path d="M571 288L570 -178" stroke-width="10" stroke="url(&quot;#SvgjsLinearGradient1075&quot;)" stroke-linecap="round" class="Up"></path><path d="M156 208L155 718" stroke-width="6" stroke="url(&quot;#SvgjsLinearGradient1077&quot;)" stroke-linecap="round" class="Up"></path><path d="M840 499L839 942" stroke-width="6" stroke="url(&quot;#SvgjsLinearGradient1077&quot;)" stroke-linecap="round" class="Up"></path><path d="M860 1000L859 1375" stroke-width="6" stroke="url(&quot;#SvgjsLinearGradient1075&quot;)" stroke-linecap="round" class="Up"></path><path d="M785 693L784 -51" stroke-width="8" stroke="url(&quot;#SvgjsLinearGradient1077&quot;)" stroke-linecap="round" class="Up"></path><path d="M1340 296L1339 -300" stroke-width="8" stroke="url(&quot;#SvgjsLinearGradient1078&quot;)" stroke-linecap="round" class="Down"></path><path d="M1027 350L1026 -23" stroke-width="10" stroke="url(&quot;#SvgjsLinearGradient1075&quot;)" stroke-linecap="round" class="Up"></path><path d="M279 370L278 646" stroke-width="10" stroke="url(&quot;#SvgjsLinearGradient1078&quot;)" stroke-linecap="round" class="Down"></path><path d="M531 885L530 139" stroke-width="8" stroke="url(&quot;#SvgjsLinearGradient1078&quot;)" stroke-linecap="round" class="Down"></path><path d="M313 781L312 113" stroke-width="10" stroke="url(&quot;#SvgjsLinearGradient1077&quot;)" stroke-linecap="round" class="Up"></path><path d="M887 897L886 488" stroke-width="6" stroke="url(&quot;#SvgjsLinearGradient1076&quot;)" stroke-linecap="round" class="Down"></path><path d="M1102 1071L1101 387" stroke-width="8" stroke="url(&quot;#SvgjsLinearGradient1076&quot;)" stroke-linecap="round" class="Down"></path><path d="M866 130L865 662" stroke-width="8" stroke="url(&quot;#SvgjsLinearGradient1076&quot;)" stroke-linecap="round" class="Down"></path><path d="M769 822L768 539" stroke-width="6" stroke="url(&quot;#SvgjsLinearGradient1076&quot;)" stroke-linecap="round" class="Down"></path><path d="M1182 349L1181 1132" stroke-width="10" stroke="url(&quot;#SvgjsLinearGradient1078&quot;)" stroke-linecap="round" class="Down"></path><path d="M51 527L50 997" stroke-width="10" stroke="url(&quot;#SvgjsLinearGradient1075&quot;)" stroke-linecap="round" class="Up"></path><path d="M78 79L77 -678" stroke-width="10" stroke="url(&quot;#SvgjsLinearGradient1078&quot;)" stroke-linecap="round" class="Down"></path><path d="M1369 313L1368 -230" stroke-width="6" stroke="url(&quot;#SvgjsLinearGradient1076&quot;)" stroke-linecap="round" class="Down"></path><path d="M1134 585L1133 -209" stroke-width="6" stroke="url(&quot;#SvgjsLinearGradient1078&quot;)" stroke-linecap="round" class="Down"></path><path d="M1227 18L1226 342" stroke-width="8" stroke="url(&quot;#SvgjsLinearGradient1078&quot;)" stroke-linecap="round" class="Down"></path><path d="M352 593L351 148" stroke-width="6" stroke="url(&quot;#SvgjsLinearGradient1077&quot;)" stroke-linecap="round" class="Up"></path><path d="M1260 861L1259 484" stroke-width="10" stroke="url(&quot;#SvgjsLinearGradient1076&quot;)" stroke-linecap="round" class="Down"></path><path d="M145 846L144 1557" stroke-width="6" stroke="url(&quot;#SvgjsLinearGradient1075&quot;)" stroke-linecap="round" class="Up"></path><path d="M482 521L481 -64" stroke-width="8" stroke="url(&quot;#SvgjsLinearGradient1076&quot;)" stroke-linecap="round" class="Down"></path><path d="M843 119L842 -222" stroke-width="6" stroke="url(&quot;#SvgjsLinearGradient1078&quot;)" stroke-linecap="round" class="Down"></path></g><defs><mask id="SvgjsMask1074"><rect width="1440" height="1080" fill="#ffffff"></rect></mask><linearGradient x1="0%" y1="100%" x2="0%" y2="0%" id="SvgjsLinearGradient1075"><stop stop-color="rgba(28, 83, 142, 0)" offset="0"></stop><stop stop-color="#1c538e" offset="1"></stop></linearGradient><linearGradient x1="0%" y1="0%" x2="0%" y2="100%" id="SvgjsLinearGradient1076"><stop stop-color="rgba(244, 245, 249, 0)" offset="0"></stop><stop stop-color="rgba(244, 245, 249, 1)" offset="1"></stop></linearGradient><linearGradient x1="0%" y1="100%" x2="0%" y2="0%" id="SvgjsLinearGradient1077"><stop stop-color="rgba(244, 245, 249, 0)" offset="0"></stop><stop stop-color="rgba(244, 245, 249, 1)" offset="1"></stop></linearGradient><linearGradient x1="0%" y1="0%" x2="0%" y2="100%" id="SvgjsLinearGradient1078"><stop stop-color="rgba(28, 83, 142, 0)" offset="0"></stop><stop stop-color="#1c538e" offset="1"></stop></linearGradient></defs></svg>