<svg xmlns="http://www.w3.org/2000/svg" version="1.1" xmlns:xlink="http://www.w3.org/1999/xlink" xmlns:svgjs="http://svgjs.dev/svgjs" width="600" height="1080" preserveAspectRatio="none" viewBox="0 0 600 1080"><g mask="url(&quot;#SvgjsMask1018&quot;)" fill="none"><rect width="600" height="1080" x="0" y="0" fill="url(&quot;#SvgjsLinearGradient1019&quot;)"></rect><path d="M0 0L57.44 0L0 502.48z" fill="rgba(255, 255, 255, .1)"></path><path d="M0 502.48L57.44 0L206.71 0L0 734.6600000000001z" fill="rgba(255, 255, 255, .075)"></path><path d="M0 734.6600000000001L206.71 0L449.79 0L0 740.4800000000001z" fill="rgba(255, 255, 255, .05)"></path><path d="M0 740.4800000000001L449.79 0L457.09000000000003 0L0 829.5000000000001z" fill="rgba(255, 255, 255, .025)"></path><path d="M600 1080L398.83000000000004 1080L600 944.48z" fill="rgba(0, 0, 0, .1)"></path><path d="M600 944.48L398.83000000000004 1080L385.96000000000004 1080L600 849.9100000000001z" fill="rgba(0, 0, 0, .075)"></path><path d="M600 849.91L385.96000000000004 1080L335.31000000000006 1080L600 801.41z" fill="rgba(0, 0, 0, .05)"></path><path d="M600 801.41L335.31 1080L259.97 1080L600 423.91999999999996z" fill="rgba(0, 0, 0, .025)"></path></g><defs><mask id="SvgjsMask1018"><rect width="600" height="1080" fill="#ffffff"></rect></mask><linearGradient x1="-20%" y1="11.11%" x2="120%" y2="88.89%" gradientUnits="userSpaceOnUse" id="SvgjsLinearGradient1019"><stop stop-color="rgba(25, 16, 45, 1)" offset="0.13"></stop><stop stop-color="rgba(76, 14, 121, 1)" offset="0.86"></stop></linearGradient></defs></svg>