<svg xmlns="http://www.w3.org/2000/svg" version="1.1" xmlns:xlink="http://www.w3.org/1999/xlink" xmlns:svgjs="http://svgjs.dev/svgjs" width="1440" height="1080" preserveAspectRatio="none" viewBox="0 0 1440 1080"><g mask="url(&quot;#SvgjsMask8502&quot;)" fill="none"><rect width="1440" height="1080" x="0" y="0" fill="url(&quot;#SvgjsLinearGradient8503&quot;)"></rect><path d="M0 0L704.31 0L0 436.79z" fill="rgba(255, 255, 255, .1)"></path><path d="M0 436.79L704.31 0L898.6099999999999 0L0 707.55z" fill="rgba(255, 255, 255, .075)"></path><path d="M0 707.55L898.6099999999999 0L984.1699999999998 0L0 836.26z" fill="rgba(255, 255, 255, .05)"></path><path d="M0 836.26L984.1699999999998 0L1182.4699999999998 0L0 853.28z" fill="rgba(255, 255, 255, .025)"></path><path d="M1440 1080L779.17 1080L1440 715.62z" fill="rgba(0, 0, 0, .1)"></path><path d="M1440 715.62L779.17 1080L713.41 1080L1440 537.16z" fill="rgba(0, 0, 0, .075)"></path><path d="M1440 537.16L713.41 1080L599.91 1080L1440 403.34999999999997z" fill="rgba(0, 0, 0, .05)"></path><path d="M1440 403.3499999999999L599.91 1080L286.96999999999997 1080L1440 287.2299999999999z" fill="rgba(0, 0, 0, .025)"></path></g><defs><mask id="SvgjsMask8502"><rect width="1440" height="1080" fill="#ffffff"></rect></mask><linearGradient x1="6.25%" y1="-8.33%" x2="93.75%" y2="108.33%" gradientUnits="userSpaceOnUse" id="SvgjsLinearGradient8503"><stop stop-color="rgba(25, 16, 45, 1)" offset="0.13"></stop><stop stop-color="rgba(76, 14, 121, 1)" offset="0.86"></stop></linearGradient></defs></svg>