<svg xmlns="http://www.w3.org/2000/svg" version="1.1" xmlns:xlink="http://www.w3.org/1999/xlink" xmlns:svgjs="http://svgjs.dev/svgjs" width="1440" height="1080" preserveAspectRatio="none" viewBox="0 0 1440 1080"><g mask="url(&quot;#SvgjsMask3002&quot;)" fill="none"><rect width="1440" height="1080" x="0" y="0" fill="url(&quot;#SvgjsLinearGradient3003&quot;)"></rect><use xlink:href="#SvgjsSymbol3010" x="0" y="0"></use><use xlink:href="#SvgjsSymbol3010" x="0" y="720"></use><use xlink:href="#SvgjsSymbol3010" x="720" y="0"></use><use xlink:href="#SvgjsSymbol3010" x="720" y="720"></use></g><defs><mask id="SvgjsMask3002"><rect width="1440" height="1080" fill="#ffffff"></rect></mask><linearGradient x1="6.25%" y1="-8.33%" x2="93.75%" y2="108.33%" gradientUnits="userSpaceOnUse" id="SvgjsLinearGradient3003"><stop stop-color="rgba(7, 39, 73, 1)" offset="0"></stop><stop stop-color="rgba(0, 3, 6, 1)" offset="1"></stop></linearGradient><path d="M-1 0 a1 1 0 1 0 2 0 a1 1 0 1 0 -2 0z" id="SvgjsPath3007"></path><path d="M-3 0 a3 3 0 1 0 6 0 a3 3 0 1 0 -6 0z" id="SvgjsPath3004"></path><path d="M-5 0 a5 5 0 1 0 10 0 a5 5 0 1 0 -10 0z" id="SvgjsPath3006"></path><path d="M2 -2 L-2 2z" id="SvgjsPath3009"></path><path d="M6 -6 L-6 6z" id="SvgjsPath3005"></path><path d="M30 -30 L-30 30z" id="SvgjsPath3008"></path></defs><symbol id="SvgjsSymbol3010"><use xlink:href="#SvgjsPath3004" x="30" y="30" stroke="#1c538e"></use><use xlink:href="#SvgjsPath3005" x="30" y="90" stroke="#1c538e"></use><use xlink:href="#SvgjsPath3004" x="30" y="150" stroke="#1c538e"></use><use xlink:href="#SvgjsPath3006" x="30" y="210" stroke="#1c538e"></use><use xlink:href="#SvgjsPath3007" x="30" y="270" stroke="#1c538e"></use><use xlink:href="#SvgjsPath3005" x="30" y="330" stroke="#1c538e"></use><use xlink:href="#SvgjsPath3004" x="30" y="390" stroke="#1c538e"></use><use xlink:href="#SvgjsPath3006" x="30" y="450" stroke="#1c538e"></use><use xlink:href="#SvgjsPath3008" x="30" y="510" stroke="#1c538e" stroke-width="3"></use><use xlink:href="#SvgjsPath3006" x="30" y="570" stroke="#1c538e"></use><use xlink:href="#SvgjsPath3004" x="30" y="630" stroke="#1c538e"></use><use xlink:href="#SvgjsPath3005" x="30" y="690" stroke="#1c538e"></use><use xlink:href="#SvgjsPath3006" x="90" y="30" stroke="#1c538e"></use><use xlink:href="#SvgjsPath3006" x="90" y="90" stroke="#1c538e"></use><use xlink:href="#SvgjsPath3006" x="90" y="150" stroke="#1c538e"></use><use xlink:href="#SvgjsPath3005" x="90" y="210" stroke="#1c538e"></use><use xlink:href="#SvgjsPath3005" x="90" y="270" stroke="#1c538e"></use><use xlink:href="#SvgjsPath3004" x="90" y="330" stroke="#1c538e"></use><use xlink:href="#SvgjsPath3005" x="90" y="390" stroke="#1c538e"></use><use xlink:href="#SvgjsPath3006" x="90" y="450" stroke="#1c538e"></use><use xlink:href="#SvgjsPath3007" x="90" y="510" stroke="#1c538e"></use><use xlink:href="#SvgjsPath3007" x="90" y="570" stroke="#1c538e"></use><use xlink:href="#SvgjsPath3006" x="90" y="630" stroke="#1c538e"></use><use xlink:href="#SvgjsPath3007" x="90" y="690" stroke="#1c538e"></use><use xlink:href="#SvgjsPath3006" x="150" y="30" stroke="#1c538e"></use><use xlink:href="#SvgjsPath3005" x="150" y="90" stroke="#1c538e"></use><use xlink:href="#SvgjsPath3009" x="150" y="150" stroke="#1c538e"></use><use xlink:href="#SvgjsPath3006" x="150" y="210" stroke="#1c538e"></use><use xlink:href="#SvgjsPath3006" x="150" y="270" stroke="#1c538e"></use><use xlink:href="#SvgjsPath3006" x="150" y="330" stroke="#1c538e"></use><use xlink:href="#SvgjsPath3006" x="150" y="390" stroke="#1c538e"></use><use xlink:href="#SvgjsPath3007" x="150" y="450" stroke="#1c538e"></use><use xlink:href="#SvgjsPath3004" x="150" y="510" stroke="#1c538e"></use><use xlink:href="#SvgjsPath3005" x="150" y="570" stroke="#1c538e"></use><use xlink:href="#SvgjsPath3009" x="150" y="630" stroke="#1c538e"></use><use xlink:href="#SvgjsPath3004" x="150" y="690" stroke="#1c538e"></use><use xlink:href="#SvgjsPath3009" x="210" y="30" stroke="#1c538e"></use><use xlink:href="#SvgjsPath3007" x="210" y="90" stroke="#1c538e"></use><use xlink:href="#SvgjsPath3004" x="210" y="150" stroke="#1c538e"></use><use xlink:href="#SvgjsPath3007" x="210" y="210" stroke="#1c538e"></use><use xlink:href="#SvgjsPath3005" x="210" y="270" stroke="#1c538e"></use><use xlink:href="#SvgjsPath3005" x="210" y="330" stroke="#1c538e"></use><use xlink:href="#SvgjsPath3008" x="210" y="390" stroke="#1c538e" stroke-width="3"></use><use xlink:href="#SvgjsPath3005" x="210" y="450" stroke="#1c538e"></use><use xlink:href="#SvgjsPath3006" x="210" y="510" stroke="#1c538e"></use><use xlink:href="#SvgjsPath3009" x="210" y="570" stroke="#1c538e"></use><use xlink:href="#SvgjsPath3004" x="210" y="630" stroke="#1c538e"></use><use xlink:href="#SvgjsPath3005" x="210" y="690" stroke="#1c538e"></use><use xlink:href="#SvgjsPath3006" x="270" y="30" stroke="#1c538e"></use><use xlink:href="#SvgjsPath3005" x="270" y="90" stroke="#1c538e"></use><use xlink:href="#SvgjsPath3005" x="270" y="150" stroke="#1c538e"></use><use xlink:href="#SvgjsPath3007" x="270" y="210" stroke="#1c538e"></use><use xlink:href="#SvgjsPath3005" x="270" y="270" stroke="#1c538e"></use><use xlink:href="#SvgjsPath3005" x="270" y="330" stroke="#1c538e"></use><use xlink:href="#SvgjsPath3006" x="270" y="390" stroke="#1c538e"></use><use xlink:href="#SvgjsPath3005" x="270" y="450" stroke="#1c538e"></use><use xlink:href="#SvgjsPath3006" x="270" y="510" stroke="#1c538e"></use><use xlink:href="#SvgjsPath3009" x="270" y="570" stroke="#1c538e"></use><use xlink:href="#SvgjsPath3005" x="270" y="630" stroke="#1c538e"></use><use xlink:href="#SvgjsPath3009" x="270" y="690" stroke="#1c538e"></use><use xlink:href="#SvgjsPath3009" x="330" y="30" stroke="#1c538e"></use><use xlink:href="#SvgjsPath3006" x="330" y="90" stroke="#1c538e"></use><use xlink:href="#SvgjsPath3006" x="330" y="150" stroke="#1c538e"></use><use xlink:href="#SvgjsPath3005" x="330" y="210" stroke="#1c538e"></use><use xlink:href="#SvgjsPath3005" x="330" y="270" stroke="#1c538e"></use><use xlink:href="#SvgjsPath3006" x="330" y="330" stroke="#1c538e"></use><use xlink:href="#SvgjsPath3007" x="330" y="390" stroke="#1c538e"></use><use xlink:href="#SvgjsPath3006" x="330" y="450" stroke="#1c538e"></use><use xlink:href="#SvgjsPath3005" x="330" y="510" stroke="#1c538e"></use><use xlink:href="#SvgjsPath3006" x="330" y="570" stroke="#1c538e"></use><use xlink:href="#SvgjsPath3009" x="330" y="630" stroke="#1c538e"></use><use xlink:href="#SvgjsPath3005" x="330" y="690" stroke="#1c538e"></use><use xlink:href="#SvgjsPath3007" x="390" y="30" stroke="#1c538e"></use><use xlink:href="#SvgjsPath3004" x="390" y="90" stroke="#1c538e"></use><use xlink:href="#SvgjsPath3007" x="390" y="150" stroke="#1c538e"></use><use xlink:href="#SvgjsPath3005" x="390" y="210" stroke="#1c538e"></use><use xlink:href="#SvgjsPath3005" x="390" y="270" stroke="#1c538e"></use><use xlink:href="#SvgjsPath3004" x="390" y="330" stroke="#1c538e"></use><use xlink:href="#SvgjsPath3006" x="390" y="390" stroke="#1c538e"></use><use xlink:href="#SvgjsPath3006" x="390" y="450" stroke="#1c538e"></use><use xlink:href="#SvgjsPath3006" x="390" y="510" stroke="#1c538e"></use><use xlink:href="#SvgjsPath3007" x="390" y="570" stroke="#1c538e"></use><use xlink:href="#SvgjsPath3005" x="390" y="630" stroke="#1c538e"></use><use xlink:href="#SvgjsPath3005" x="390" y="690" stroke="#1c538e"></use><use xlink:href="#SvgjsPath3009" x="450" y="30" stroke="#1c538e"></use><use xlink:href="#SvgjsPath3009" x="450" y="90" stroke="#1c538e"></use><use xlink:href="#SvgjsPath3006" x="450" y="150" stroke="#1c538e"></use><use xlink:href="#SvgjsPath3009" x="450" y="210" stroke="#1c538e"></use><use xlink:href="#SvgjsPath3005" x="450" y="270" stroke="#1c538e"></use><use xlink:href="#SvgjsPath3007" x="450" y="330" stroke="#1c538e"></use><use xlink:href="#SvgjsPath3006" x="450" y="390" stroke="#1c538e"></use><use xlink:href="#SvgjsPath3005" x="450" y="450" stroke="#1c538e"></use><use xlink:href="#SvgjsPath3005" x="450" y="510" stroke="#1c538e"></use><use xlink:href="#SvgjsPath3006" x="450" y="570" stroke="#1c538e"></use><use xlink:href="#SvgjsPath3005" x="450" y="630" stroke="#1c538e"></use><use xlink:href="#SvgjsPath3007" x="450" y="690" stroke="#1c538e"></use><use xlink:href="#SvgjsPath3009" x="510" y="30" stroke="#1c538e"></use><use xlink:href="#SvgjsPath3005" x="510" y="90" stroke="#1c538e"></use><use xlink:href="#SvgjsPath3009" x="510" y="150" stroke="#1c538e"></use><use xlink:href="#SvgjsPath3005" x="510" y="210" stroke="#1c538e"></use><use xlink:href="#SvgjsPath3009" x="510" y="270" stroke="#1c538e"></use><use xlink:href="#SvgjsPath3006" x="510" y="330" stroke="#1c538e"></use><use xlink:href="#SvgjsPath3005" x="510" y="390" stroke="#1c538e"></use><use xlink:href="#SvgjsPath3005" x="510" y="450" stroke="#1c538e"></use><use xlink:href="#SvgjsPath3007" x="510" y="510" stroke="#1c538e"></use><use xlink:href="#SvgjsPath3004" x="510" y="570" stroke="#1c538e"></use><use xlink:href="#SvgjsPath3005" x="510" y="630" stroke="#1c538e"></use><use xlink:href="#SvgjsPath3006" x="510" y="690" stroke="#1c538e"></use><use xlink:href="#SvgjsPath3006" x="570" y="30" stroke="#1c538e"></use><use xlink:href="#SvgjsPath3005" x="570" y="90" stroke="#1c538e"></use><use xlink:href="#SvgjsPath3007" x="570" y="150" stroke="#1c538e"></use><use xlink:href="#SvgjsPath3008" x="570" y="210" stroke="#1c538e" stroke-width="3"></use><use xlink:href="#SvgjsPath3005" x="570" y="270" stroke="#1c538e"></use><use xlink:href="#SvgjsPath3005" x="570" y="330" stroke="#1c538e"></use><use xlink:href="#SvgjsPath3009" x="570" y="390" stroke="#1c538e"></use><use xlink:href="#SvgjsPath3007" x="570" y="450" stroke="#1c538e"></use><use xlink:href="#SvgjsPath3009" x="570" y="510" stroke="#1c538e"></use><use xlink:href="#SvgjsPath3005" x="570" y="570" stroke="#1c538e"></use><use xlink:href="#SvgjsPath3007" x="570" y="630" stroke="#1c538e"></use><use xlink:href="#SvgjsPath3005" x="570" y="690" stroke="#1c538e"></use><use xlink:href="#SvgjsPath3004" x="630" y="30" stroke="#1c538e"></use><use xlink:href="#SvgjsPath3006" x="630" y="90" stroke="#1c538e"></use><use xlink:href="#SvgjsPath3005" x="630" y="150" stroke="#1c538e"></use><use xlink:href="#SvgjsPath3009" x="630" y="210" stroke="#1c538e"></use><use xlink:href="#SvgjsPath3005" x="630" y="270" stroke="#1c538e"></use><use xlink:href="#SvgjsPath3008" x="630" y="330" stroke="#1c538e" stroke-width="3"></use><use xlink:href="#SvgjsPath3004" x="630" y="390" stroke="#1c538e"></use><use xlink:href="#SvgjsPath3007" x="630" y="450" stroke="#1c538e"></use><use xlink:href="#SvgjsPath3006" x="630" y="510" stroke="#1c538e"></use><use xlink:href="#SvgjsPath3007" x="630" y="570" stroke="#1c538e"></use><use xlink:href="#SvgjsPath3006" x="630" y="630" stroke="#1c538e"></use><use xlink:href="#SvgjsPath3006" x="630" y="690" stroke="#1c538e"></use><use xlink:href="#SvgjsPath3005" x="690" y="30" stroke="#1c538e"></use><use xlink:href="#SvgjsPath3005" x="690" y="90" stroke="#1c538e"></use><use xlink:href="#SvgjsPath3005" x="690" y="150" stroke="#1c538e"></use><use xlink:href="#SvgjsPath3007" x="690" y="210" stroke="#1c538e"></use><use xlink:href="#SvgjsPath3006" x="690" y="270" stroke="#1c538e"></use><use xlink:href="#SvgjsPath3007" x="690" y="330" stroke="#1c538e"></use><use xlink:href="#SvgjsPath3005" x="690" y="390" stroke="#1c538e"></use><use xlink:href="#SvgjsPath3006" x="690" y="450" stroke="#1c538e"></use><use xlink:href="#SvgjsPath3005" x="690" y="510" stroke="#1c538e"></use><use xlink:href="#SvgjsPath3005" x="690" y="570" stroke="#1c538e"></use><use xlink:href="#SvgjsPath3005" x="690" y="630" stroke="#1c538e"></use><use xlink:href="#SvgjsPath3006" x="690" y="690" stroke="#1c538e"></use></symbol></svg>